{
	"asset":{
		"generator":"Khronos glTF Blender I/O v4.3.47",
		"version":"2.0"
	},
	"scene":0,
	"scenes":[
		{
			"name":"Scene",
			"nodes":[
				0,
				1,
				2
			]
		}
	],
	"nodes":[
		{
			"name":"Empty",
			"rotation":[
				0,
				0.6894768476486206,
				0,
				0.7243077158927917
			],
			"scale":[
				0.15775354206562042,
				0.15775355696678162,
				0.15775354206562042
			],
			"translation":[
				0.012205352075397968,
				0,
				-0.18557190895080566
			]
		},
		{
			"mesh":0,
			"name":"Cylinder.002",
			"translation":[
				-1.1945704221725464,
				0.03231654688715935,
				-0.012425210326910019
			]
		},
		{
			"mesh":1,
			"name":"Cylinder.001"
		}
	],
	"meshes":[
		{
			"name":"Cylinder.003",
			"primitives":[
				{
					"attributes":{
						"POSITION":0,
						"NORMAL":1,
						"TEXCOORD_0":2
					},
					"indices":3
				}
			]
		},
		{
			"name":"Cylinder.002",
			"primitives":[
				{
					"attributes":{
						"POSITION":4,
						"NORMAL":5,
						"TEXCOORD_0":6
					},
					"indices":7
				}
			]
		}
	],
	"accessors":[
		{
			"bufferView":0,
			"componentType":5126,
			"count":696,
			"max":[
				0.2138666808605194,
				0.38069063425064087,
				0.2138666808605194
			],
			"min":[
				-0.2138666808605194,
				-0.4202882647514343,
				-0.2138666808605194
			],
			"type":"VEC3"
		},
		{
			"bufferView":1,
			"componentType":5126,
			"count":696,
			"type":"VEC3"
		},
		{
			"bufferView":2,
			"componentType":5126,
			"count":696,
			"type":"VEC2"
		},
		{
			"bufferView":3,
			"componentType":5123,
			"count":1356,
			"type":"SCALAR"
		},
		{
			"bufferView":4,
			"componentType":5126,
			"count":261,
			"max":[
				0.2138666808605194,
				0.38069063425064087,
				0.2138666808605194
			],
			"min":[
				-0.2138666808605194,
				-0.4202882647514343,
				-0.2138666808605194
			],
			"type":"VEC3"
		},
		{
			"bufferView":5,
			"componentType":5126,
			"count":261,
			"type":"VEC3"
		},
		{
			"bufferView":6,
			"componentType":5126,
			"count":261,
			"type":"VEC2"
		},
		{
			"bufferView":7,
			"componentType":5123,
			"count":1356,
			"type":"SCALAR"
		}
	],
	"bufferViews":[
		{
			"buffer":0,
			"byteLength":8352,
			"byteOffset":0,
			"target":34962
		},
		{
			"buffer":0,
			"byteLength":8352,
			"byteOffset":8352,
			"target":34962
		},
		{
			"buffer":0,
			"byteLength":5568,
			"byteOffset":16704,
			"target":34962
		},
		{
			"buffer":0,
			"byteLength":2712,
			"byteOffset":22272,
			"target":34963
		},
		{
			"buffer":0,
			"byteLength":3132,
			"byteOffset":24984,
			"target":34962
		},
		{
			"buffer":0,
			"byteLength":3132,
			"byteOffset":28116,
			"target":34962
		},
		{
			"buffer":0,
			"byteLength":2088,
			"byteOffset":31248,
			"target":34962
		},
		{
			"buffer":0,
			"byteLength":2712,
			"byteOffset":33336,
			"target":34963
		}
	],
	"buffers":[
		{
			"byteLength":36048,
			"uri":"practice.bin"
		}
	]
}
